<svg xmlns="http://www.w3.org/2000/svg" width="800.273" height="513.21"><g transform="translate(-706.769 -271.611)"><path fill="#e6e6e6" d="M1496.512 784.822H717.64a10.542 10.542 0 0 1-10.53-10.53V291.885h799.932v482.407a10.541 10.541 0 0 1-10.53 10.53Z"/><path fill="#fff" d="M1473.675 754.675h-733.2a10.656 10.656 0 0 1-10.645-10.644v-397.28a10.657 10.657 0 0 1 10.645-10.644h733.2a10.656 10.656 0 0 1 10.644 10.644v397.28a10.656 10.656 0 0 1-10.644 10.645Z"/><path fill="#111827" d="M1506.701 306.782H706.769v-24.64a10.542 10.542 0 0 1 10.53-10.53h778.872a10.542 10.542 0 0 1 10.53 10.53Z"/><circle cx="6.289" cy="6.289" r="6.289" fill="#fff" transform="translate(726.314 283.289)"/><circle cx="6.289" cy="6.289" r="6.289" fill="#fff" transform="translate(750.185 283.289)"/><circle cx="6.289" cy="6.289" r="6.289" fill="#fff" transform="translate(774.056 283.289)"/><path fill="#e6e6e6" d="M805.188 407.345h75.568v33.448h-75.568zM956.324 476.719h75.568v33.448h-75.568z"/><path fill="#111827" d="M805.188 580.779h75.568v33.448h-75.568zM956.324 650.152h75.568V683.6h-75.568zM1332.923 684.839h75.568v33.448h-75.568z"/><path fill="#e6e6e6" d="M1257.355 546.092h75.568v33.448h-75.568z"/><path fill="#111827" d="M1031.892 546.092h151.135v33.448h-151.135zM1031.892 371.42h151.135v33.448h-151.135z"/><path fill="#e6e6e6" d="M729.621 335.493v419.958h755.676V335.493Zm753.2 34.79h-72.844v-32.312h72.842Zm-449.443 243.53v-32.312h148.162v32.312Zm148.162 2.478v32.313h-148.162v-32.313Zm0-139.16v32.312h-148.162v-32.312Zm-148.162-2.478v-32.312h148.162v32.313Zm0 69.58v-32.312h148.162v32.313Zm148.162 2.478v32.313h-148.162v-32.313Zm-150.639-37.268h-72.842v-32.312h72.842Zm0 2.478v32.313h-72.842v-32.313Zm0 34.79v32.313h-72.842v-32.313Zm0 34.79v32.312h-72.842v-32.312Zm153.117 0h72.842v32.312h-72.843Zm0-2.478v-32.312h72.842v32.313Zm0-34.79v-32.312h72.842v32.313Zm0-34.79v-32.312h72.842v32.312Zm0-34.79v-32.312h72.842v32.313Zm0-34.79v-32.312h72.842v32.313Zm-2.478 0h-148.162v-32.312h148.162Zm-150.639 0h-72.842v-32.312h72.842Zm0 2.478v32.313h-72.842v-32.313Zm-75.32 32.313h-72.843v-32.313h72.843Zm0 2.478v32.312h-72.843v-32.313Zm0 34.79v32.313h-72.843v-32.314Zm0 34.79v32.313h-72.843v-32.314Zm0 34.79v32.312h-72.843v-32.313Zm0 34.79v32.313h-72.843v-32.314Zm2.478 0h72.842v32.313h-72.842Zm72.842 34.79v32.312h-72.842v-32.313Zm2.478 0h148.161v32.312h-148.162Zm150.639 0h72.842v32.312h-72.843Zm0-2.478v-32.313h72.842v32.313Zm75.32-32.313h72.843v32.313h-72.844Zm0-2.478v-32.312h72.843v32.312Zm0-34.79v-32.312h72.843v32.313Zm0-34.79v-32.312h72.843v32.313Zm0-34.79v-32.312h72.843v32.312Zm0-34.79v-32.312h72.843v32.313Zm0-34.79v-32.312h72.843v32.313Zm0-34.79v-32.312h72.843v32.31Zm-2.478 0h-72.843v-32.312h72.842Zm-75.32 0h-148.162v-32.312h148.162Zm-150.639 0h-72.842v-32.312h72.842Zm-75.32 0h-72.843v-32.312h72.843Zm0 2.478v32.313h-72.843v-32.313Zm-75.321 32.313h-72.842v-32.313h72.842Zm0 2.478v32.313h-72.842v-32.314Zm0 34.79v32.312h-72.842v-32.313Zm0 34.79v32.313h-72.842v-32.314Zm0 34.79v32.313h-72.842v-32.314Zm0 34.79v32.312h-72.842v-32.313Zm0 34.79v32.313h-72.842v-32.314Zm0 34.79v32.312h-72.842v-32.313Zm2.478 0h72.843v32.312h-72.843Zm72.843 34.79v32.313h-72.843v-32.314Zm2.478 0h72.842v32.313h-72.842Zm75.32 0h148.161v32.313h-148.162Zm150.639 0h72.842v32.313h-72.843Zm75.32 0h72.843v32.313h-72.844Zm0-2.478v-32.313h72.843v32.312Zm75.321-32.312h72.842v32.312h-72.842Zm0-2.478v-32.313h72.842v32.313Zm0-34.79v-32.313h72.842v32.312Zm0-34.79v-32.313h72.842v32.313Zm0-34.79v-32.313h72.842v32.313Zm0-34.79v-32.313h72.842v32.312Zm0-34.79v-32.313h72.842v32.313Zm0-34.79v-32.313h72.842v32.313Zm0-34.79v-32.313h72.842v32.31Zm0-34.79v-32.313h72.842v32.313Zm-2.478 0h-72.844v-32.313h72.843Zm-75.321 0h-72.843v-32.313h72.842Zm-75.32 0h-148.162v-32.313h148.162Zm-150.639 0h-72.842v-32.313h72.842Zm-75.32 0h-72.843v-32.313h72.843Zm-75.321 0h-72.842v-32.313h72.842Zm0 2.478v32.309h-72.842v-32.31Zm-75.319 32.309h-72.842v-32.31h72.842Zm0 2.478v32.313h-72.842v-32.311Zm0 34.79v32.313h-72.842v-32.311Zm0 34.79v32.312h-72.842v-32.31Zm0 34.79v32.313h-72.842v-32.311Zm0 34.79v32.313h-72.842v-32.311Zm0 34.79v32.312h-72.842v-32.31Zm0 34.79v32.313h-72.842v-32.311Zm0 34.79v32.312h-72.842v-32.31Zm0 34.79v32.313h-72.842v-32.311Zm2.478 0h72.842v32.313h-72.843Zm72.842 34.791v32.311h-72.843v-32.31Zm2.478 0h72.843v32.311h-72.844Zm75.321 0h72.842v32.311h-72.843Zm75.32 0h148.16v32.311h-148.162Zm150.639 0h72.842v32.311h-72.844Zm75.32 0h72.843v32.311h-72.845Zm75.321 0h72.842v32.311h-72.842Zm0-2.478v-32.311h72.842v32.313Zm75.32-32.313h72.842v32.313h-72.845Zm0-2.478v-32.31h72.842v32.312Zm0-34.79v-32.31h72.842v32.313Zm0-34.79v-32.31h72.842v32.312Zm0-34.79v-32.31h72.842v32.313Zm0-34.79v-32.31h72.842v32.313Zm0-34.79v-32.31h72.842v32.312Zm0-34.79v-32.31h72.842v32.313Zm0-34.79v-32.31h72.842v32.313Zm0-34.79v-32.31h72.842v32.31Zm-605.039-67.1v32.313h-72.842v-32.313Zm-72.842 382.69h72.842v32.31h-72.842Zm677.878 32.31v-32.31h72.842v32.31Z"/></g></svg>